<svg width="1347" height="772" viewBox="0 0 1347 772" fill="none" xmlns="http://www.w3.org/2000/svg">
<rect x="1084.5" y="279.5" width="260" height="474" fill="#FFFDFD" stroke="#E6BD75" stroke-width="5"/>
<rect x="1093" y="292" width="29" height="117" fill="#E6BD75" stroke="#2A3F5F" stroke-width="4"/>
<rect x="1308" y="559" width="29" height="149" fill="#E6BD75" stroke="#2A3F5F" stroke-width="4"/>
<rect x="1308" y="292" width="29" height="158" fill="#E6BD75" stroke="#2A3F5F" stroke-width="4"/>
<rect x="1093" y="591" width="29" height="117" fill="#E6BD75" stroke="#2A3F5F" stroke-width="4"/>
<rect x="1130" y="746" width="19" height="50" transform="rotate(-90 1130 746)" fill="#E6BD75" stroke="#2A3F5F" stroke-width="4"/>
<rect x="1244" y="746" width="19" height="50" transform="rotate(-90 1244 746)" fill="#E6BD75" stroke="#2A3F5F" stroke-width="4"/>
<rect x="1187" y="746" width="34" height="50" transform="rotate(-90 1187 746)" fill="white" stroke="#2A3F5F" stroke-width="4"/>
<path d="M1290 467H1337V543H1290V467Z" fill="white" stroke="#2A3F5F" stroke-width="4"/>
<rect x="1191" y="264" width="48" height="57" fill="#FDFDFD"/>
<circle cx="1214.5" cy="516.5" r="25.5" fill="#E6BD75" stroke="#2A3F5F" stroke-width="4"/>
<mask id="path-12-inside-1_326_146" fill="white">
<path d="M688 277H953V756H688V277Z"/>
</mask>
<path d="M688 277H953V756H688V277Z" fill="#FFFDFD"/>
<path d="M953 756V761H958V756H953ZM688 756H683V761H688V756ZM948 277V756H958V277H948ZM953 751H688V761H953V751ZM693 756V277H683V756H693Z" fill="#E6BD75" mask="url(#path-12-inside-1_326_146)"/>
<rect x="914" y="305" width="29" height="424" fill="#E6BD75" stroke="#2A3F5F" stroke-width="4"/>
<rect x="761" y="743" width="29" height="117" transform="rotate(-90 761 743)" fill="#E6BD75" stroke="#2A3F5F" stroke-width="4"/>
<rect x="698" y="618" width="29" height="76" fill="#E6BD75" stroke="#2A3F5F" stroke-width="4"/>
<rect x="698" y="559" width="29" height="31" fill="#E6BD75" stroke="#2A3F5F" stroke-width="4"/>
<rect x="698" y="442" width="29" height="31" fill="#E6BD75" stroke="#2A3F5F" stroke-width="4"/>
<rect x="698" y="363" width="29" height="53" fill="#E6BD75" stroke="#2A3F5F" stroke-width="4"/>
<rect x="698" y="491" width="34" height="50" fill="white" stroke="#2A3F5F" stroke-width="4"/>
<mask id="path-21-inside-2_326_146" fill="white">
<path d="M948 277H1087V485H948V277Z"/>
</mask>
<path d="M948 277H1087V485H948V277Z" fill="#FFFDFD"/>
<path d="M1087 485V490H1092V485H1087ZM948 485H943V490H948V485ZM1082 277V485H1092V277H1082ZM1087 480H948V490H1087V480ZM953 485V277H943V485H953Z" fill="#E6BD75" mask="url(#path-21-inside-2_326_146)"/>
<rect x="958" y="367" width="29" height="74" fill="#E6BD75" stroke="#2A3F5F" stroke-width="4"/>
<rect x="1048" y="367" width="29" height="74" fill="#E6BD75" stroke="#2A3F5F" stroke-width="4"/>
<rect x="981" y="477" width="29" height="74" transform="rotate(-90 981 477)" fill="#E6BD75" stroke="#2A3F5F" stroke-width="4"/>
<mask id="path-26-inside-3_326_146" fill="white">
<path d="M310 277H460V653H310V277Z"/>
</mask>
<path d="M310 277H460V653H310V277Z" fill="#FFFDFD"/>
<path d="M460 653V658H465V653H460ZM310 653H305V658H310V653ZM455 277V653H465V277H455ZM460 648H310V658H460V648ZM315 653V277H305V653H315Z" fill="#E6BD75" mask="url(#path-26-inside-3_326_146)"/>
<rect x="323" y="311" width="29" height="308" fill="#E6BD75" stroke="#2A3F5F" stroke-width="4"/>
<rect x="323" y="311" width="29" height="308" fill="#E6BD75" stroke="#2A3F5F" stroke-width="4"/>
<rect x="422" y="311" width="29" height="308" fill="#E6BD75" stroke="#2A3F5F" stroke-width="4"/>
<mask id="path-31-inside-4_326_146" fill="white">
<path d="M455 277H693V756H455V277Z"/>
</mask>
<path d="M455 277H693V756H455V277Z" fill="#FFFDFD"/>
<path d="M693 756V761H698V756H693ZM455 756H450V761H455V756ZM688 277V756H698V277H688ZM693 751H455V761H693V751ZM460 756V277H450V756H460Z" fill="#E6BD75" mask="url(#path-31-inside-4_326_146)"/>
<rect x="653" y="317" width="29" height="174" fill="#E6BD75" stroke="#2A3F5F" stroke-width="4"/>
<rect x="653" y="515" width="29" height="174" fill="#E6BD75" stroke="#2A3F5F" stroke-width="4"/>
<rect x="465" y="317" width="29" height="174" fill="#E6BD75" stroke="#2A3F5F" stroke-width="4"/>
<rect x="465" y="515" width="29" height="174" fill="#E6BD75" stroke="#2A3F5F" stroke-width="4"/>
<rect x="565" y="317" width="29" height="359" fill="#E6BD75" stroke="#2A3F5F" stroke-width="4"/>
<rect x="521" y="743" width="29" height="117" transform="rotate(-90 521 743)" fill="#E6BD75" stroke="#2A3F5F" stroke-width="4"/>
<path d="M16.5609 757.5L113.236 283.129L117.975 757.5L16.5609 757.5Z" fill="#FDFDFD" stroke="#E6BD75" stroke-width="5"/>
<mask id="path-40-inside-5_326_146" fill="white">
<path d="M111 277H318V760H111V277Z"/>
</mask>
<path d="M111 277H318V760H111V277Z" fill="#FFFDFD"/>
<path d="M318 760V765H323V760H318ZM313 277V760H323V277H313ZM318 755H111V765H318V755Z" fill="#E6BD75" mask="url(#path-40-inside-5_326_146)"/>
<rect x="279" y="353" width="29" height="354" fill="#E6BD75" stroke="#2A3F5F" stroke-width="4"/>
<rect x="108.786" y="350.913" width="29" height="382.824" transform="rotate(11.06 108.786 350.913)" fill="#E6BD75" stroke="#2A3F5F" stroke-width="4"/>
<rect x="142" y="748" width="34" height="92" transform="rotate(-90 142 748)" fill="white" stroke="#2A3F5F" stroke-width="4"/>
<rect x="160" y="525" width="29" height="27" fill="#2A3F5F"/>
<rect x="192" y="525" width="29" height="27" fill="#2A3F5F"/>
<rect x="224" y="525" width="29" height="27" fill="#2A3F5F"/>
<rect x="128" y="525" width="29" height="27" fill="#2A3F5F"/>
<rect x="160" y="557" width="29" height="27" fill="#2A3F5F"/>
<rect x="192" y="557" width="29" height="27" fill="#2A3F5F"/>
<rect x="224" y="557" width="29" height="27" fill="#2A3F5F"/>
<rect x="128" y="557" width="29" height="27" fill="#2A3F5F"/>
<rect x="160" y="589" width="29" height="27" fill="#2A3F5F"/>
<rect x="192" y="589" width="29" height="27" fill="#2A3F5F"/>
<rect x="224" y="589" width="29" height="27" fill="#2A3F5F"/>
<rect x="128" y="589" width="29" height="27" fill="#2A3F5F"/>
<rect x="160" y="621" width="29" height="27" fill="#2A3F5F"/>
<rect x="192" y="621" width="29" height="27" fill="#2A3F5F"/>
<rect x="224" y="621" width="29" height="27" fill="#2A3F5F"/>
<rect x="128" y="621" width="29" height="27" fill="#2A3F5F"/>
<mask id="path-61-inside-6_326_146" fill="white">
<path d="M111 216H1347V281H111V216Z"/>
</mask>
<path d="M111 216H1347V281H111V216Z" fill="#FDFDFD"/>
<path d="M111 216V211H106V216H111ZM1347 216H1352V211H1347V216ZM111 221H1347V211H111V221ZM1342 216V281H1352V216H1342ZM116 281V216H106V281H116Z" fill="#E6BD75" mask="url(#path-61-inside-6_326_146)"/>
<circle cx="14" cy="14" r="14" fill="#2A3F5F"/>
<rect x="142" y="254" width="29" height="117" transform="rotate(-90 142 254)" fill="#E6BD75" stroke="#2A3F5F" stroke-width="4"/>
</svg>
